<svg aria-hidden="true" style="position: absolute; width: 0; height: 0; overflow: hidden;" version="1.1" xmlns="http://www.w3.org/2000/svg" xmlns:xlink="http://www.w3.org/1999/xlink">
<defs>
<symbol id="icon-technologies" viewBox="0 0 32 32">
<path fill="#4d5ae5" style="fill: var(--color1, #4d5ae5)" d="M4.524 0.026c-0.193 0.063-0.333 0.229-0.363 0.43l-0.278 1.91-1.731 0.855c-0.365 0.179-0.365 0.777 0 0.956l1.731 0.855 0.278 1.91c0.029 0.201 0.17 0.367 0.363 0.431 0.193 0.062 0.405 0.011 0.547-0.135l1.348-1.383 1.903 0.326c0.2 0.034 0.402-0.048 0.522-0.212 0.121-0.166 0.135-0.382 0.040-0.562l-0.899-1.709 0.899-1.709c0.041-0.078 0.061-0.164 0.061-0.249 0-0.11-0.034-0.221-0.102-0.314-0.119-0.164-0.322-0.246-0.522-0.212l-1.903 0.326-1.348-1.383c-0.142-0.145-0.354-0.197-0.547-0.135zM5.851 2.489c0.122 0.125 0.299 0.183 0.472 0.153l1.114-0.191-0.526 1.001c-0.041 0.078-0.061 0.163-0.061 0.249s0.020 0.17 0.061 0.249l0.526 1.001-1.114-0.191c-0.173-0.030-0.349 0.028-0.472 0.153l-0.789 0.81-0.163-1.119c-0.025-0.174-0.134-0.324-0.292-0.402l-1.013-0.5 1.013-0.5c0.157-0.078 0.267-0.228 0.292-0.402l0.163-1.119 0.789 0.809z"></path>
<path fill="#4d5ae5" style="fill: var(--color1, #4d5ae5)" d="M20.522 5.867v1.067h1.067v-1.067h-1.067z"></path>
<path fill="#4d5ae5" style="fill: var(--color1, #4d5ae5)" d="M22.656 5.867v1.067h1.067v-1.067h-1.067z"></path>
<path fill="#4d5ae5" style="fill: var(--color1, #4d5ae5)" d="M21.589 4.8v1.067h1.067v-1.067h-1.067z"></path>
<path fill="#4d5ae5" style="fill: var(--color1, #4d5ae5)" d="M21.589 6.933v1.067h1.067v-1.067h-1.067z"></path>
<path fill="#4d5ae5" style="fill: var(--color1, #4d5ae5)" d="M26.389 9.6v1.067h1.067v-1.067h-1.067z"></path>
<path fill="#4d5ae5" style="fill: var(--color1, #4d5ae5)" d="M28.522 9.6v1.067h1.067v-1.067h-1.067z"></path>
<path fill="#4d5ae5" style="fill: var(--color1, #4d5ae5)" d="M27.456 8.533v1.067h1.067v-1.067h-1.067z"></path>
<path fill="#4d5ae5" style="fill: var(--color1, #4d5ae5)" d="M27.456 10.667v1.067h1.067v-1.067h-1.067z"></path>
<path fill="#4d5ae5" style="fill: var(--color1, #4d5ae5)" d="M24.256 16v1.067h1.067v-1.067h-1.067z"></path>
<path fill="#4d5ae5" style="fill: var(--color1, #4d5ae5)" d="M26.389 16v1.067h1.067v-1.067h-1.067z"></path>
<path fill="#4d5ae5" style="fill: var(--color1, #4d5ae5)" d="M25.322 14.933v1.067h1.067v-1.067h-1.067z"></path>
<path fill="#4d5ae5" style="fill: var(--color1, #4d5ae5)" d="M25.322 17.067v1.067h1.067v-1.067h-1.067z"></path>
<path fill="#4d5ae5" style="fill: var(--color1, #4d5ae5)" d="M6.122 26.134v1.067h1.067v-1.067h-1.067z"></path>
<path fill="#4d5ae5" style="fill: var(--color1, #4d5ae5)" d="M8.255 26.134v1.067h1.067v-1.067h-1.067z"></path>
<path fill="#4d5ae5" style="fill: var(--color1, #4d5ae5)" d="M7.189 25.067v1.067h1.067v-1.067h-1.067z"></path>
<path fill="#4d5ae5" style="fill: var(--color1, #4d5ae5)" d="M7.189 27.2v1.067h1.067v-1.067h-1.067z"></path>
<path fill="#2e2f42" style="fill: var(--color2, #2e2f42)" d="M14.159 7.285c-0.388 0.287-0.637 0.709-0.705 1.188-0.068 0.481 0.058 0.956 0.352 1.34l0.96 1.252 1.417 1.898-0.541 1.358c-1.086-2.421-3.508-4.114-6.32-4.114-3.823 0-6.933 3.123-6.933 6.961s3.11 6.961 6.933 6.961c1.386 0 2.674-0.414 3.758-1.12l-0.024 2.764c0 0.002 0 0.003 0 0.005 0 0.009 0.004 0.015 0.005 0.023 0.002 0.053 0.013 0.105 0.031 0.155 0.005 0.013 0.008 0.026 0.013 0.038 0.003 0.006 0.003 0.013 0.006 0.019l1.596 3.233c0 0.001 0 0.001 0.001 0.001l0.911 1.893c0.009 0.021 0.021 0.042 0.035 0.063 0.502 0.755 1.489 1.012 2.295 0.598 0.429-0.22 0.745-0.595 0.889-1.056 0.055-0.178 0.083-0.359 0.083-0.539 0-0.29-0.071-0.577-0.211-0.839l-0.738-1.388-1.169-2.264-0.008-1.357 5.416 5.442c0.001 0 0.001 0.001 0.001 0.002l1.333 1.339c0.315 0.316 0.732 0.49 1.178 0.49s0.863-0.174 1.179-0.49c0.323-0.325 0.485-0.752 0.485-1.179s-0.162-0.854-0.485-1.18l-1.309-1.314-1.3-1.741 0.897-0.901 1.754 1.762c0.001 0 0.001 0.001 0.001 0.002l1.333 1.339c0.315 0.316 0.732 0.49 1.178 0.49s0.863-0.174 1.179-0.49c0.323-0.325 0.485-0.753 0.485-1.18s-0.162-0.855-0.485-1.18l-3.467-3.482c-0.001-0.001-0.001-0.001-0.002-0.001l-1-1.010-0.004 0.004c-0.006-0.006-0.009-0.015-0.015-0.022l-5.658-5.166 0.494-3.471c0.004-0.025 0.005-0.050 0.005-0.075 0-0.065-0.015-0.127-0.038-0.187-0.006-0.018-0.015-0.033-0.023-0.050-0.010-0.019-0.015-0.039-0.027-0.058l-2.133-3.213c-0.008-0.012-0.021-0.018-0.029-0.029-0.010-0.013-0.014-0.029-0.026-0.040l-1.191-1.271c-0.62-0.662-1.635-0.753-2.362-0.212zM17.77 29.87c0.093 0.173 0.111 0.37 0.052 0.558-0.058 0.187-0.186 0.338-0.358 0.427-0.314 0.161-0.695 0.068-0.902-0.214l-0.632-1.314 1.313-0.449 0.527 0.992zM15.942 26.372l0.8 1.548-1.283 0.439-1.001-2.027 1.484 0.040zM9.322 11.273c0.918 0 1.785 0.219 2.559 0.599l-1.899 4.181c-0.573 0.044-1.075 0.341-1.388 0.788l-4.86-1.464c0.756-2.378 2.974-4.105 5.588-4.105zM9.322 23.062c-3.235 0-5.867-2.644-5.867-5.895 0-0.253 0.021-0.5 0.052-0.745l4.754 1.432c-0.001 0.019-0.006 0.037-0.006 0.057 0 1.033 0.837 1.873 1.867 1.873s1.867-0.84 1.867-1.873c0-0.694-0.383-1.294-0.945-1.618l1.755-3.862c1.446 1.075 2.39 2.795 2.39 4.737 0 3.25-2.632 5.894-5.867 5.894zM10.122 17.106c0.441 0 0.8 0.362 0.8 0.806s-0.359 0.806-0.8 0.806-0.8-0.362-0.8-0.806c0-0.444 0.359-0.806 0.8-0.806zM25.146 29.535c0.234 0.236 0.234 0.619 0.001 0.854-0.114 0.114-0.263 0.176-0.423 0.176s-0.309-0.062-0.421-0.176l-0.958-0.962 0.848-0.851 0.955 0.959zM28.88 26.321c0.234 0.236 0.235 0.619 0.001 0.855-0.114 0.114-0.263 0.176-0.423 0.176s-0.309-0.062-0.421-0.176l-0.959-0.963 0.848-0.852 0.955 0.96zM25.411 22.84c0 0.001 0 0.001 0.001 0.002l1.76 1.765-0.848 0.852-1.755-1.763c0 0 0 0-0 0s-0.001-0.001-0.001-0.002c-0.040-0.040-0.088-0.065-0.135-0.090-0.014-0.007-0.026-0.020-0.040-0.026-0.041-0.017-0.085-0.019-0.129-0.026-0.025-0.003-0.047-0.014-0.073-0.014-0.036 0-0.070 0.013-0.106 0.020-0.032 0.006-0.065 0.006-0.095 0.019-0.050 0.020-0.094 0.055-0.138 0.091-0.012 0.010-0.027 0.014-0.038 0.025 0 0 0 0 0 0.001s-0.002 0.001-0.002 0.001l-1.6 1.607c-0.017 0.017-0.024 0.039-0.038 0.058-0.022 0.028-0.042 0.055-0.058 0.087-0.015 0.030-0.024 0.061-0.033 0.093-0.010 0.034-0.017 0.067-0.020 0.103-0.002 0.033 0.001 0.063 0.005 0.095 0.004 0.036 0.009 0.069 0.020 0.104 0.011 0.034 0.027 0.063 0.045 0.094 0.011 0.020 0.015 0.042 0.029 0.061l1.324 1.773-0.897 0.901-2.386-2.399 4.289-4.361 0.919 0.928zM18.394 16.021c-0.002 0.015 0.004 0.030 0.003 0.045-0.002 0.039 0.001 0.076 0.007 0.115 0.005 0.030 0.011 0.059 0.021 0.088 0.012 0.034 0.028 0.065 0.047 0.097 0.018 0.030 0.037 0.057 0.061 0.083 0.011 0.013 0.017 0.028 0.029 0.040l5.146 4.698-4.257 4.328-2.818-2.833c-0.208-0.209-0.546-0.21-0.755-0.002-0.105 0.105-0.157 0.243-0.156 0.381h-0.001l0.013 2.219-1.607-0.028 0.027-3.104c1.294-1.265 2.101-3.029 2.101-4.981 0-0.437-0.045-0.864-0.123-1.279 0.032-0.040 0.065-0.079 0.085-0.13l0.96-2.41 1.644-0.331-0.427 3.003zM18.572 11.98l-1.558 0.313-1.080-1.446 1.257-0.947 1.381 2.080zM15.741 8.226l0.785 0.838-1.236 0.931-0.637-0.831c-0.119-0.155-0.168-0.351-0.143-0.543 0.027-0.193 0.128-0.364 0.284-0.48 0.292-0.217 0.699-0.18 0.947 0.085z"></path>
<path fill="#2e2f42" style="fill: var(--color2, #2e2f42)" d="M18.544 18.398l-2.133 2.143c-0.207 0.207-0.207 0.545 0 0.753l2.133 2.142c0.101 0.1 0.236 0.157 0.378 0.157s0.278-0.056 0.378-0.157l2.133-2.142c0.103-0.104 0.155-0.241 0.155-0.377s-0.052-0.273-0.155-0.376l-2.133-2.143c-0.1-0.1-0.236-0.157-0.378-0.157s-0.278 0.057-0.378 0.157zM20.303 20.917l-1.381 1.387-1.381-1.387 1.381-1.387 1.381 1.387z"></path>
<path fill="#2e2f42" style="fill: var(--color2, #2e2f42)" d="M5.071 14.836l1.036 0.258c0.018-0.071 0.452-1.738 2.149-1.738v-1.067c-2.017 0-2.965 1.666-3.185 2.547z"></path>
<path fill="#2e2f42" style="fill: var(--color2, #2e2f42)" d="M9.322 12.289v1.067h1.067v-1.067h-1.067z"></path>
</symbol>
<symbol id="icon-diligence" viewBox="0 0 32 32">
<path fill="#4d5ae5" style="fill: var(--color1, #4d5ae5)" d="M14.925 14.965h1.066v4.798h-1.066v-4.797z"></path>
<path fill="#4d5ae5" style="fill: var(--color1, #4d5ae5)" d="M19.19 17.097h1.066v2.665h-1.066v-2.665z"></path>
<path fill="#4d5ae5" style="fill: var(--color1, #4d5ae5)" d="M10.661 18.696h1.066v1.066h-1.066v-1.066z"></path>
<path fill="#4d5ae5" style="fill: var(--color1, #4d5ae5)" d="M7.463 18.163h1.066v1.599h-1.066v-1.599z"></path>
<path fill="#2e2f42" style="fill: var(--color2, #2e2f42)" d="M1.599 28.291h25.587c0.883 0 1.599-0.716 1.599-1.599v-2.132c0-0.883-0.716-1.599-1.599-1.599h-0.533v-13.293l3.028-2.868c0.703 0.346 1.553 0.136 2.013-0.499s0.396-1.508-0.152-2.068-1.42-0.644-2.065-0.198c-0.644 0.446-0.873 1.292-0.542 2.002l-2.281 2.163v-1.23c0-0.883-0.716-1.599-1.599-1.599h-21.322c-0.883 0-1.599 0.716-1.599 1.599v15.992h-0.533c-0.883 0-1.599 0.716-1.599 1.599v2.132c0 0.883 0.716 1.599 1.599 1.599zM30.384 4.837c0.294 0 0.533 0.239 0.533 0.533s-0.239 0.533-0.533 0.533c-0.294 0-0.533-0.239-0.533-0.533s0.239-0.533 0.533-0.533zM3.198 6.969c0-0.294 0.239-0.533 0.533-0.533h21.322c0.294 0 0.533 0.239 0.533 0.533v2.239l-1.066 1.013v-2.186c0-0.294-0.239-0.533-0.533-0.533h-19.19c-0.294 0-0.533 0.239-0.533 0.533v13.326c0 0.294 0.239 0.533 0.533 0.533h19.19c0.294 0 0.533-0.239 0.533-0.533v-9.674l1.066-1.010v12.284h-22.388v-15.992zM7.996 13.899c-0.721-0.002-1.354 0.478-1.546 1.174s0.105 1.433 0.725 1.801c0.62 0.368 1.41 0.276 1.928-0.226l1.853 0.93c0.215 0.108 0.476 0.057 0.636-0.123l3.939-4.431 3.872 2.901c0.208 0.156 0.498 0.139 0.686-0.039l3.365-3.188v8.131h-18.124v-12.26h18.124v2.66l-3.771 3.572-3.904-2.927c-0.222-0.166-0.534-0.135-0.718 0.072l-3.993 4.493-1.493-0.746c0.011-0.064 0.018-0.129 0.020-0.193 0-0.883-0.716-1.599-1.599-1.599zM8.529 15.498c0 0.294-0.239 0.533-0.533 0.533s-0.533-0.239-0.533-0.533c0-0.294 0.239-0.533 0.533-0.533s0.533 0.239 0.533 0.533zM11.727 24.027h5.331v0.533c0 0.294-0.239 0.533-0.533 0.533h-4.264c-0.294 0-0.533-0.239-0.533-0.533v-0.533zM1.066 24.56c0-0.294 0.239-0.533 0.533-0.533h9.062v0.533c0 0.883 0.716 1.599 1.599 1.599h4.264c0.883 0 1.599-0.716 1.599-1.599v-0.533h9.062c0.294 0 0.533 0.239 0.533 0.533v2.132c0 0.294-0.239 0.533-0.533 0.533h-25.587c-0.294 0-0.533-0.239-0.533-0.533v-2.132z"></path>
</symbol>
<symbol id="icon-punctuality" viewBox="0 0 32 32">
<path fill="#2e2f42" style="fill: var(--color2, #2e2f42)" d="M31.297 15.301c-0.002-8.452-6.855-15.303-15.308-15.301s-15.303 6.855-15.301 15.308c0.001 6.658 4.307 12.551 10.649 14.576 0.061 0.019 0.124 0.029 0.187 0.029 0.121-0 0.239-0.032 0.342-0.094 0.135-0.080 0.236-0.207 0.283-0.356l3.865-12.25c1.057-0.005 1.909-0.866 1.903-1.923s-0.866-1.909-1.923-1.903c-0.284 0.001-0.565 0.067-0.82 0.191l-5.106-5.107c-0.253-0.245-0.657-0.238-0.902 0.016-0.239 0.247-0.239 0.639 0 0.886l5.103 5.109c-0.392 0.799-0.168 1.764 0.536 2.309l-3.683 11.673c-7.278-2.681-11.004-10.754-8.323-18.032s10.754-11.004 18.032-8.323c7.278 2.681 11.004 10.754 8.323 18.032-1.31 3.556-4.001 6.431-7.462 7.973l-0.398-1.874c-0.073-0.345-0.411-0.565-0.756-0.492-0.109 0.023-0.209 0.074-0.293 0.148l-3.837 3.426c-0.263 0.234-0.287 0.637-0.052 0.9 0.076 0.085 0.174 0.149 0.283 0.184l4.899 1.564c0.335 0.108 0.694-0.077 0.802-0.412 0.034-0.106 0.040-0.219 0.017-0.328l-0.391-1.839c5.664-2.388 9.342-7.942 9.329-14.089zM15.992 14.664c0.352 0 0.638 0.286 0.638 0.638s-0.286 0.638-0.638 0.638c-0.352 0-0.638-0.285-0.638-0.638s0.285-0.638 0.638-0.638zM18.093 29.528l2.184-1.948 0.603 2.84-2.787-0.892z"></path>
<path fill="#4d5ae5" style="fill: var(--color1, #4d5ae5)" d="M15.354 3.185v1.275c0 0.352 0.285 0.638 0.638 0.638s0.638-0.285 0.638-0.638v-1.275c0-0.352-0.286-0.638-0.638-0.638s-0.638 0.286-0.638 0.638z"></path>
<path fill="#4d5ae5" style="fill: var(--color1, #4d5ae5)" d="M3.876 14.664c-0.352 0-0.638 0.286-0.638 0.638s0.285 0.638 0.638 0.638h1.275c0.352 0 0.638-0.285 0.638-0.638s-0.285-0.638-0.638-0.638h-1.275z"></path>
<path fill="#4d5ae5" style="fill: var(--color1, #4d5ae5)" d="M28.108 15.939c0.352 0 0.638-0.285 0.638-0.638s-0.285-0.638-0.638-0.638h-1.275c-0.352 0-0.638 0.286-0.638 0.638s0.286 0.638 0.638 0.638h1.275z"></path>
</symbol>
<symbol id="icon-strategy" viewBox="0 0 32 32">
<path fill="#2e2f42" style="fill: var(--color2, #2e2f42)" d="M30.773 22.098l-8.443-8.505 0.937-4.615c0.242 0.094 0.499 0.144 0.758 0.146h0.006c1.192 0.014 2.17-0.941 2.184-2.133s-0.941-2.17-2.133-2.184c-1.192-0.014-2.17 0.941-2.184 2.133-0.003 0.255 0.039 0.509 0.125 0.749l-4.96 0.605-8.091-8.133c-0.099-0.101-0.235-0.159-0.377-0.16-0.14 0.001-0.274 0.056-0.373 0.155l-1.513 1.504c-0.208 0.208-0.208 0.546 0 0.754l0.814 0.826c-3.153 5.798-2.129 12.978 2.519 17.663 0.043 0.041 0.092 0.074 0.146 0.098-0.034 0.18-0.051 0.364-0.052 0.547v6.187h-6.4c-1.472 0.002-2.665 1.195-2.667 2.667v1.067c0 0.295 0.239 0.533 0.533 0.533h24.533c0.295 0 0.533-0.239 0.533-0.533v-1.067c-0.002-1.472-1.195-2.665-2.667-2.667h-6.4v-2.742c1.003 0.21 2.024 0.317 3.049 0.32 2.458-0.003 4.877-0.615 7.040-1.783l0.818 0.823c0.099 0.101 0.235 0.159 0.377 0.16 0.14-0.001 0.274-0.056 0.373-0.155l1.513-1.504c0.208-0.208 0.208-0.546 0-0.754zM23.28 6.233c0.418-0.415 1.093-0.414 1.509 0.004s0.414 1.093-0.004 1.508c-0.2 0.199-0.47 0.31-0.752 0.31h-0.003c-0.589-0.003-1.064-0.483-1.061-1.072 0.002-0.282 0.115-0.552 0.314-0.751h-0.002zM22.024 9.738l-0.598 2.946-1.175-1.182 1.774-1.763zM21.419 8.836l-1.92 1.909-1.485-1.493 3.405-0.415zM24.004 28.8c0.884 0 1.6 0.716 1.6 1.6v0.533h-23.467v-0.533c0-0.884 0.716-1.6 1.6-1.6h20.267zM16.537 26.667v1.067h-5.333v-1.067h5.333zM11.204 25.6v-4.053c0-1.294 1.196-2.347 2.667-2.347s2.667 1.053 2.667 2.347v4.053h-5.333zM17.604 23.904v-2.357c0-1.882-1.675-3.413-3.733-3.413-1.331-0.020-2.576 0.657-3.281 1.786-4.058-4.274-4.971-10.645-2.279-15.887l18.602 18.708c-2.872 1.461-6.165 1.873-9.309 1.163zM28.893 23.22l-21.057-21.181 0.755-0.752 7.935 7.98c0.004 0 0.006 0.007 0.010 0.010l13.115 13.191-0.757 0.752z"></path>
<path fill="#4d5ae5" style="fill: var(--color1, #4d5ae5)" d="M13.876 20.267h-0.005c-0.884-0.001-1.601 0.714-1.602 1.598s0.714 1.601 1.598 1.602h0.005c0.884 0.001 1.601-0.714 1.602-1.598s-0.714-1.601-1.598-1.602zM14.249 22.245c-0.1 0.1-0.236 0.156-0.378 0.155-0.295-0.002-0.532-0.242-0.531-0.536 0.001-0.141 0.057-0.276 0.157-0.375s0.233-0.154 0.373-0.155c0.295 0.002 0.532 0.242 0.531 0.536-0.001 0.141-0.057 0.276-0.157 0.375h0.005z"></path>
</symbol>
<symbol id="icon-linkedin" viewBox="0 0 32 32">
<path fill="#f4f4fd" style="fill: var(--color3, #f4f4fd)" d="M31.992 32v-0.001h0.008v-11.736c0-5.741-1.236-10.164-7.948-10.164-3.227 0-5.392 1.771-6.276 3.449h-0.093v-2.913h-6.364v21.364h6.627v-10.579c0-2.785 0.528-5.479 3.977-5.479 3.399 0 3.449 3.179 3.449 5.657v10.401h6.62z"></path>
<path fill="#f4f4fd" style="fill: var(--color3, #f4f4fd)" d="M0.528 10.636h6.635v21.364h-6.635v-21.364z"></path>
<path fill="#f4f4fd" style="fill: var(--color3, #f4f4fd)" d="M3.843-0c-2.121 0-3.843 1.721-3.843 3.843s1.721 3.879 3.843 3.879c2.121 0 3.843-1.757 3.843-3.879-0.001-2.121-1.723-3.843-3.843-3.843v0z"></path>
</symbol>
<symbol id="icon-facebook" viewBox="0 0 32 32">
<path fill="#f4f4fd" style="fill: var(--color3, #f4f4fd)" d="M21.329 5.313h2.921v-5.088c-0.504-0.069-2.237-0.225-4.256-0.225-4.212 0-7.097 2.649-7.097 7.519v4.481h-4.648v5.688h4.648v14.312h5.699v-14.311h4.46l0.708-5.688h-5.169v-3.919c0.001-1.644 0.444-2.769 2.735-2.769z"></path>
</symbol>
<symbol id="icon-twitter" viewBox="0 0 32 32">
<path fill="#f4f4fd" style="fill: var(--color3, #f4f4fd)" d="M32 6.078c-1.19 0.522-2.458 0.868-3.78 1.036 1.36-0.812 2.398-2.088 2.886-3.626-1.268 0.756-2.668 1.29-4.16 1.588-1.204-1.282-2.92-2.076-4.792-2.076-3.632 0-6.556 2.948-6.556 6.562 0 0.52 0.044 1.020 0.152 1.496-5.454-0.266-10.28-2.88-13.522-6.862-0.566 0.982-0.898 2.106-0.898 3.316 0 2.272 1.17 4.286 2.914 5.452-1.054-0.020-2.088-0.326-2.964-0.808 0 0.020 0 0.046 0 0.072 0 3.188 2.274 5.836 5.256 6.446-0.534 0.146-1.116 0.216-1.72 0.216-0.42 0-0.844-0.024-1.242-0.112 0.85 2.598 3.262 4.508 6.13 4.57-2.232 1.746-5.066 2.798-8.134 2.798-0.538 0-1.054-0.024-1.57-0.090 2.906 1.874 6.35 2.944 10.064 2.944 12.072 0 18.672-10 18.672-18.668 0-0.29-0.010-0.57-0.024-0.848 1.302-0.924 2.396-2.078 3.288-3.406z"></path>
</symbol>
<symbol id="icon-instagram" viewBox="0 0 32 32">
<path fill="#f4f4fd" style="fill: var(--color3, #f4f4fd)" d="M31.969 9.408c-0.075-1.7-0.35-2.869-0.744-3.882-0.406-1.075-1.031-2.038-1.85-2.838-0.8-0.813-1.769-1.444-2.832-1.844-1.019-0.394-2.182-0.669-3.882-0.744-1.713-0.081-2.257-0.1-6.601-0.1s-4.888 0.019-6.595 0.094c-1.7 0.075-2.869 0.35-3.882 0.744-1.075 0.406-2.038 1.031-2.838 1.85-0.813 0.8-1.444 1.769-1.844 2.832-0.394 1.019-0.669 2.182-0.744 3.882-0.081 1.713-0.1 2.257-0.1 6.601s0.019 4.888 0.094 6.595c0.075 1.7 0.35 2.869 0.744 3.882 0.406 1.075 1.038 2.038 1.85 2.838 0.8 0.813 1.769 1.444 2.832 1.844 1.019 0.394 2.182 0.669 3.882 0.744 1.706 0.075 2.25 0.094 6.595 0.094s4.888-0.019 6.595-0.094c1.7-0.075 2.869-0.35 3.882-0.744 2.151-0.831 3.851-2.532 4.682-4.682 0.394-1.019 0.669-2.182 0.744-3.882 0.075-1.707 0.094-2.25 0.094-6.595s-0.006-4.888-0.081-6.595zM29.087 22.473c-0.069 1.563-0.331 2.407-0.55 2.969-0.538 1.394-1.644 2.5-3.038 3.038-0.563 0.219-1.413 0.481-2.969 0.55-1.688 0.075-2.194 0.094-6.464 0.094s-4.782-0.019-6.464-0.094c-1.563-0.069-2.407-0.331-2.969-0.55-0.694-0.256-1.325-0.663-1.838-1.194-0.531-0.519-0.938-1.144-1.194-1.838-0.219-0.563-0.481-1.413-0.55-2.969-0.075-1.688-0.094-2.194-0.094-6.464s0.019-4.782 0.094-6.464c0.069-1.563 0.331-2.407 0.55-2.969 0.256-0.694 0.663-1.325 1.2-1.838 0.519-0.531 1.144-0.938 1.838-1.194 0.563-0.219 1.413-0.481 2.969-0.55 1.688-0.075 2.194-0.094 6.464-0.094 4.276 0 4.782 0.019 6.464 0.094 1.563 0.069 2.407 0.331 2.969 0.55 0.694 0.256 1.325 0.662 1.838 1.194 0.531 0.519 0.938 1.144 1.194 1.838 0.219 0.563 0.481 1.413 0.55 2.969 0.075 1.688 0.094 2.194 0.094 6.464s-0.019 4.77-0.094 6.458z"></path>
<path fill="#f4f4fd" style="fill: var(--color3, #f4f4fd)" d="M16.059 7.783c-4.538 0-8.22 3.682-8.22 8.22s3.682 8.22 8.22 8.22c4.538 0 8.22-3.682 8.22-8.22s-3.682-8.22-8.22-8.22zM16.059 21.335c-2.944 0-5.332-2.388-5.332-5.332s2.388-5.332 5.332-5.332c2.944 0 5.332 2.388 5.332 5.332s-2.388 5.332-5.332 5.332z"></path>
<path fill="#f4f4fd" style="fill: var(--color3, #f4f4fd)" d="M26.524 7.458c0 1.060-0.859 1.919-1.919 1.919s-1.919-0.859-1.919-1.919c0-1.060 0.859-1.919 1.919-1.919s1.919 0.859 1.919 1.919z"></path>
</symbol>
</defs>
</svg>
